<?xml version="1.0" encoding="UTF-8"?>
<svg xmlns="http://www.w3.org/2000/svg" xmlns:xlink="http://www.w3.org/1999/xlink" viewBox="0 0 30 30" width="30px" height="30px">
<g id="surface162631254">
<path style=" stroke:none;fill-rule:nonzero;fill:rgb(100%,100%,100%);fill-opacity:1;" d="M 14 3 C 12.894531 3 12 3.894531 12 5 L 4 5 C 2.894531 5 2 5.894531 2 7 L 2 16 C 2 17.105469 2.894531 18 4 18 L 26 18 C 27.105469 18 28 17.105469 28 16 L 28 7 C 28 5.894531 27.105469 5 26 5 L 18 5 C 18 3.894531 17.105469 3 16 3 Z M 15 14 C 15.550781 14 16 14.449219 16 15 C 16 15.550781 15.550781 16 15 16 C 14.449219 16 14 15.550781 14 15 C 14 14.449219 14.449219 14 15 14 Z M 2 19.441406 L 2 23 C 2 24.105469 2.894531 25 4 25 L 26 25 C 27.105469 25 28 24.105469 28 23 L 28 19.441406 C 27.410156 19.789062 26.730469 20 26 20 L 4 20 C 3.269531 20 2.589844 19.789062 2 19.441406 Z M 2 19.441406 "/>
</g>
</svg>
